<svg width="21" height="20" viewBox="0 0 21 20" fill="none" xmlns="http://www.w3.org/2000/svg">
<path d="M10.6667 0.25C11.081 0.25 11.4167 0.585786 11.4167 1V3.25C11.4167 3.66421 11.081 4 10.6667 4C10.2525 4 9.91675 3.66421 9.91675 3.25V1C9.91675 0.585786 10.2525 0.25 10.6667 0.25Z" fill="#262626"/>
<path d="M6.16675 10C6.16675 7.51472 8.18147 5.5 10.6667 5.5C13.152 5.5 15.1667 7.51472 15.1667 10C15.1667 12.4853 13.152 14.5 10.6667 14.5C8.18147 14.5 6.16675 12.4853 6.16675 10Z" fill="#262626"/>
<path d="M17.5611 4.16634C17.854 3.87344 17.854 3.39857 17.5611 3.10568C17.2682 2.81278 16.7933 2.81278 16.5004 3.10568L14.9094 4.69667C14.6165 4.98956 14.6165 5.46444 14.9094 5.75733C15.2023 6.05022 15.6772 6.05022 15.9701 5.75733L17.5611 4.16634Z" fill="#262626"/>
<path d="M20.4167 10C20.4167 10.4142 20.081 10.75 19.6667 10.75H17.4167C17.0025 10.75 16.6667 10.4142 16.6667 10C16.6667 9.58579 17.0025 9.25 17.4167 9.25H19.6667C20.081 9.25 20.4167 9.58579 20.4167 10Z" fill="#262626"/>
<path d="M16.5003 16.8943C16.7932 17.1871 17.2681 17.1871 17.561 16.8943C17.8539 16.6014 17.8539 16.1265 17.561 15.8336L15.97 14.2426C15.6771 13.9497 15.2022 13.9497 14.9093 14.2426C14.6164 14.5355 14.6164 15.0104 14.9093 15.3033L16.5003 16.8943Z" fill="#262626"/>
<path d="M10.6667 16C11.081 16 11.4167 16.3358 11.4167 16.75V19C11.4167 19.4142 11.081 19.75 10.6667 19.75C10.2525 19.75 9.91675 19.4142 9.91675 19V16.75C9.91675 16.3358 10.2525 16 10.6667 16Z" fill="#262626"/>
<path d="M6.42425 15.3033C6.71714 15.0104 6.71714 14.5355 6.42425 14.2426C6.13136 13.9497 5.65648 13.9497 5.36359 14.2426L3.7726 15.8336C3.47971 16.1265 3.47971 16.6014 3.7726 16.8943C4.06549 17.1872 4.54037 17.1872 4.83326 16.8943L6.42425 15.3033Z" fill="#262626"/>
<path d="M4.66675 10C4.66675 10.4142 4.33096 10.75 3.91675 10.75H1.66675C1.25253 10.75 0.916748 10.4142 0.916748 10C0.916748 9.58579 1.25253 9.25 1.66675 9.25H3.91675C4.33096 9.25 4.66675 9.58579 4.66675 10Z" fill="#262626"/>
<path d="M5.36348 5.75732C5.65637 6.05021 6.13124 6.05021 6.42414 5.75732C6.71703 5.46443 6.71703 4.98955 6.42414 4.69666L4.83315 3.10567C4.54025 2.81278 4.06538 2.81278 3.77249 3.10567C3.47959 3.39856 3.47959 3.87344 3.77249 4.16633L5.36348 5.75732Z" fill="#262626"/>
</svg>
